<svg width="24" height="17" viewBox="0 0 24 17" fill="none" xmlns="http://www.w3.org/2000/svg">
<path d="M23.302 5.12665C23.046 4.88306 22.736 4.71012 22.4 4.59855V2.23141C22.4 1.00041 21.324 0 20 0H13.6C12.984 0 12.426 0.22314 12 0.580165C11.574 0.22314 11.016 0 10.4 0H4C2.676 0 1.6 1.00041 1.6 2.23141V4.60041C0.67 4.90723 0 5.72541 0 6.69421V15.6198C0 16.0308 0.358 16.3636 0.8 16.3636H4C4.442 16.3636 4.8 16.0308 4.8 15.6198V14.876H19.2V15.6198C19.2 16.0308 19.558 16.3636 20 16.3636H23.2C23.642 16.3636 24 16.0308 24 15.6198V6.69421C24 6.09174 23.746 5.52831 23.302 5.12665ZM13.6 1.4876H20C20.442 1.4876 20.8 1.82045 20.8 2.23141V4.59112C20.774 4.60041 20.748 4.61343 20.722 4.62273C20.678 4.63946 20.634 4.65806 20.592 4.67665C20.502 4.7157 20.418 4.75847 20.334 4.80682C20.294 4.82913 20.256 4.85145 20.218 4.87562C20.124 4.93884 20.034 5.00764 19.95 5.08202C19.932 5.0969 19.912 5.10992 19.896 5.12665C19.798 5.21963 19.71 5.32004 19.63 5.42603C19.608 5.45579 19.59 5.4874 19.57 5.51901C19.516 5.60083 19.466 5.68264 19.422 5.7719C19.402 5.81281 19.384 5.85372 19.366 5.89649C19.33 5.98388 19.3 6.07314 19.276 6.16426C19.266 6.20517 19.252 6.24422 19.244 6.28698C19.218 6.41715 19.2 6.55475 19.2 6.69421V7.43802H12.8V2.23141C12.8 1.82045 13.158 1.4876 13.6 1.4876ZM4.8 8.92562H12H19.2V9.66942H4.8V8.92562ZM3.2 2.23141C3.2 1.82045 3.558 1.4876 4 1.4876H10.4C10.842 1.4876 11.2 1.82045 11.2 2.23141V7.43802H4.8V6.69421C4.8 6.09174 4.546 5.52831 4.102 5.12665C3.982 5.01136 3.848 4.91281 3.706 4.82541C3.66 4.79752 3.61 4.77707 3.562 4.75289C3.462 4.70083 3.362 4.65248 3.256 4.61343C3.236 4.60599 3.22 4.59483 3.2 4.5874V2.23141ZM3.2 14.876H1.6V6.69421C1.6 6.28326 1.958 5.95041 2.4 5.95041C2.614 5.95041 2.81 6.02665 2.97 6.17727C3.118 6.31302 3.2 6.49525 3.2 6.69421V8.18182V10.4132V14.1322V14.876ZM4.8 13.3884V11.157H19.2V13.3884H4.8ZM22.4 14.876H20.8V14.1322V10.4132V8.18182V6.69421C20.8 6.28326 21.158 5.95041 21.6 5.95041C21.814 5.95041 22.01 6.02665 22.17 6.17727C22.318 6.31116 22.4 6.49525 22.4 6.69421V14.876Z" fill="#999999"/>
</svg>
