<svg width="17" height="18" viewBox="0 0 17 18" fill="none" xmlns="http://www.w3.org/2000/svg">
<path d="M11.6667 1H2.77778C1.79594 1 1 1.79594 1 2.77778V4.55556C1 5.5374 1.79594 6.33333 2.77778 6.33333H11.6667C12.6485 6.33333 13.4444 5.5374 13.4444 4.55556V2.77778C13.4444 1.79594 12.6485 1 11.6667 1Z" stroke="#999999" stroke-width="1.4" stroke-linecap="round" stroke-linejoin="round"/>
<path d="M13.4445 3.66669H14.3334C14.8049 3.66669 15.2571 3.85399 15.5905 4.18739C15.9239 4.52078 16.1112 4.97297 16.1112 5.44446C16.1112 6.6232 15.6429 7.75367 14.8094 8.58716C13.9759 9.42066 12.8455 9.88891 11.6667 9.88891H7.22227V11.6667" stroke="#999999" stroke-width="1.4" stroke-linecap="round" stroke-linejoin="round"/>
<path d="M8.11071 11.6666H6.33293C5.84202 11.6666 5.44405 12.0646 5.44405 12.5555V16.1111C5.44405 16.602 5.84202 17 6.33293 17H8.11071C8.60163 17 8.9996 16.602 8.9996 16.1111V12.5555C8.9996 12.0646 8.60163 11.6666 8.11071 11.6666Z" stroke="#999999" stroke-width="1.4" stroke-linecap="round" stroke-linejoin="round"/>
</svg>
