<svg width="32" height="28" viewBox="0 0 32 28" fill="none" xmlns="http://www.w3.org/2000/svg">
<path d="M27.9205 3.34C29.4099 4.83539 30.2462 6.86001 30.2462 8.97062C30.2462 11.0812 29.4099 13.1059 27.9205 14.6012L15.6192 27L3.31797 14.6012C2.21175 13.4876 1.45861 12.0723 1.15284 10.5326C0.847068 8.99295 1.00225 7.3973 1.59897 5.94541C2.19569 4.49351 3.20742 3.24989 4.50751 2.37022C5.80761 1.49055 7.3383 1.01392 8.90797 1C11.0069 1.01273 13.0159 1.85371 14.498 3.34C14.9302 3.76774 15.3069 4.24818 15.6192 4.77C15.9315 4.24818 16.3082 3.76774 16.7405 3.34C17.4707 2.59909 18.341 2.01074 19.3006 1.60915C20.2603 1.20757 21.2902 1.00077 22.3305 1.00077C23.3708 1.00077 24.4007 1.20757 25.3603 1.60915C26.32 2.01074 27.1902 2.59909 27.9205 3.34V3.34Z" stroke="#161A1D" stroke-width="2" stroke-linecap="round" stroke-linejoin="round"/>
</svg>
